<svg width="80" height="18" viewBox="0 0 80 18" fill="none" xmlns="http://www.w3.org/2000/svg">
<mask id="path-1-outside-1_101_56" maskUnits="userSpaceOnUse" x="0" y="0" width="80" height="18" fill="black">
<rect fill="white" width="80" height="18"/>
<path d="M9.9 16L4.18 8.64L9.72 1.88H13.6L7.36 9.22V7.94L13.8 16H9.9ZM1.36 16V1.88H4.5V16H1.36ZM17.51 10.18V7.86H20.49C21.1167 7.86 21.5967 7.7 21.93 7.38C22.2767 7.06 22.45 6.62667 22.45 6.08C22.45 5.57333 22.2833 5.15333 21.95 4.82C21.6167 4.48667 21.1367 4.32 20.51 4.32H17.51V1.88H20.87C21.8033 1.88 22.6233 2.06 23.33 2.42C24.0367 2.76667 24.59 3.25333 24.99 3.88C25.39 4.50667 25.59 5.22667 25.59 6.04C25.59 6.86667 25.39 7.59333 24.99 8.22C24.59 8.83333 24.03 9.31333 23.31 9.66C22.59 10.0067 21.7433 10.18 20.77 10.18H17.51ZM15.11 16V1.88H18.25V16H15.11ZM22.79 16L18.39 9.92L21.27 9.14L26.51 16H22.79ZM31.5398 10.74L26.0998 1.88H29.7398L33.9198 9.04H31.5798L35.7598 1.88H39.3198L33.8398 10.74H31.5398ZM31.1598 16V9.3H34.2998V16H31.1598ZM42.842 10.86V8.42H45.882C46.2687 8.42 46.622 8.34 46.942 8.18C47.262 8.02 47.5154 7.78667 47.702 7.48C47.8887 7.17333 47.982 6.8 47.982 6.36C47.982 5.93333 47.8887 5.56667 47.702 5.26C47.5154 4.95333 47.262 4.72 46.942 4.56C46.622 4.4 46.2687 4.32 45.882 4.32H42.842V1.88H46.342C47.2354 1.88 48.042 2.06 48.762 2.42C49.482 2.78 50.0487 3.3 50.462 3.98C50.8887 4.64667 51.102 5.44 51.102 6.36C51.102 7.28 50.8887 8.08 50.462 8.76C50.0487 9.42667 49.482 9.94667 48.762 10.32C48.042 10.68 47.2354 10.86 46.342 10.86H42.842ZM40.442 16V1.88H43.582V16H40.442ZM56.2067 16V2.08H59.3467V16H56.2067ZM51.7867 4.62V1.88H63.7667V4.62H51.7867ZM71.518 16.24C70.4513 16.24 69.4646 16.0533 68.558 15.68C67.6646 15.3067 66.878 14.7867 66.198 14.12C65.518 13.4533 64.9913 12.68 64.618 11.8C64.2446 10.9067 64.058 9.94667 64.058 8.92C64.058 7.88 64.2446 6.92 64.618 6.04C64.9913 5.16 65.5113 4.39333 66.178 3.74C66.8446 3.07333 67.6246 2.56 68.518 2.2C69.4246 1.82667 70.4113 1.64 71.478 1.64C72.5313 1.64 73.5046 1.82667 74.398 2.2C75.3046 2.56 76.0913 3.07333 76.758 3.74C77.438 4.39333 77.9646 5.16667 78.338 6.06C78.7113 6.94 78.898 7.9 78.898 8.94C78.898 9.96667 78.7113 10.9267 78.338 11.82C77.9646 12.7 77.4446 13.4733 76.778 14.14C76.1113 14.7933 75.3246 15.3067 74.418 15.68C73.5246 16.0533 72.558 16.24 71.518 16.24ZM71.478 13.38C72.318 13.38 73.0513 13.1933 73.678 12.82C74.318 12.4467 74.8113 11.9267 75.158 11.26C75.5046 10.58 75.678 9.8 75.678 8.92C75.678 8.25333 75.578 7.65333 75.378 7.12C75.178 6.57333 74.8913 6.10667 74.518 5.72C74.1446 5.32 73.698 5.02 73.178 4.82C72.6713 4.60667 72.1046 4.5 71.478 4.5C70.638 4.5 69.898 4.68667 69.258 5.06C68.6313 5.42 68.1446 5.93333 67.798 6.6C67.4513 7.25333 67.278 8.02667 67.278 8.92C67.278 9.58667 67.378 10.1933 67.578 10.74C67.778 11.2867 68.058 11.76 68.418 12.16C68.7913 12.5467 69.238 12.8467 69.758 13.06C70.278 13.2733 70.8513 13.38 71.478 13.38Z"/>
</mask>
<path d="M9.9 16L4.18 8.64L9.72 1.88H13.6L7.36 9.22V7.94L13.8 16H9.9ZM1.36 16V1.88H4.5V16H1.36ZM17.51 10.18V7.86H20.49C21.1167 7.86 21.5967 7.7 21.93 7.38C22.2767 7.06 22.45 6.62667 22.45 6.08C22.45 5.57333 22.2833 5.15333 21.95 4.82C21.6167 4.48667 21.1367 4.32 20.51 4.32H17.51V1.88H20.87C21.8033 1.88 22.6233 2.06 23.33 2.42C24.0367 2.76667 24.59 3.25333 24.99 3.88C25.39 4.50667 25.59 5.22667 25.59 6.04C25.59 6.86667 25.39 7.59333 24.99 8.22C24.59 8.83333 24.03 9.31333 23.31 9.66C22.59 10.0067 21.7433 10.18 20.77 10.18H17.51ZM15.11 16V1.88H18.25V16H15.11ZM22.79 16L18.39 9.92L21.27 9.14L26.51 16H22.79ZM31.5398 10.74L26.0998 1.88H29.7398L33.9198 9.04H31.5798L35.7598 1.88H39.3198L33.8398 10.74H31.5398ZM31.1598 16V9.3H34.2998V16H31.1598ZM42.842 10.86V8.42H45.882C46.2687 8.42 46.622 8.34 46.942 8.18C47.262 8.02 47.5154 7.78667 47.702 7.48C47.8887 7.17333 47.982 6.8 47.982 6.36C47.982 5.93333 47.8887 5.56667 47.702 5.26C47.5154 4.95333 47.262 4.72 46.942 4.56C46.622 4.4 46.2687 4.32 45.882 4.32H42.842V1.88H46.342C47.2354 1.88 48.042 2.06 48.762 2.42C49.482 2.78 50.0487 3.3 50.462 3.98C50.8887 4.64667 51.102 5.44 51.102 6.36C51.102 7.28 50.8887 8.08 50.462 8.76C50.0487 9.42667 49.482 9.94667 48.762 10.32C48.042 10.68 47.2354 10.86 46.342 10.86H42.842ZM40.442 16V1.88H43.582V16H40.442ZM56.2067 16V2.08H59.3467V16H56.2067ZM51.7867 4.62V1.88H63.7667V4.62H51.7867ZM71.518 16.24C70.4513 16.24 69.4646 16.0533 68.558 15.68C67.6646 15.3067 66.878 14.7867 66.198 14.12C65.518 13.4533 64.9913 12.68 64.618 11.8C64.2446 10.9067 64.058 9.94667 64.058 8.92C64.058 7.88 64.2446 6.92 64.618 6.04C64.9913 5.16 65.5113 4.39333 66.178 3.74C66.8446 3.07333 67.6246 2.56 68.518 2.2C69.4246 1.82667 70.4113 1.64 71.478 1.64C72.5313 1.64 73.5046 1.82667 74.398 2.2C75.3046 2.56 76.0913 3.07333 76.758 3.74C77.438 4.39333 77.9646 5.16667 78.338 6.06C78.7113 6.94 78.898 7.9 78.898 8.94C78.898 9.96667 78.7113 10.9267 78.338 11.82C77.9646 12.7 77.4446 13.4733 76.778 14.14C76.1113 14.7933 75.3246 15.3067 74.418 15.68C73.5246 16.0533 72.558 16.24 71.518 16.24ZM71.478 13.38C72.318 13.38 73.0513 13.1933 73.678 12.82C74.318 12.4467 74.8113 11.9267 75.158 11.26C75.5046 10.58 75.678 9.8 75.678 8.92C75.678 8.25333 75.578 7.65333 75.378 7.12C75.178 6.57333 74.8913 6.10667 74.518 5.72C74.1446 5.32 73.698 5.02 73.178 4.82C72.6713 4.60667 72.1046 4.5 71.478 4.5C70.638 4.5 69.898 4.68667 69.258 5.06C68.6313 5.42 68.1446 5.93333 67.798 6.6C67.4513 7.25333 67.278 8.02667 67.278 8.92C67.278 9.58667 67.378 10.1933 67.578 10.74C67.778 11.2867 68.058 11.76 68.418 12.16C68.7913 12.5467 69.238 12.8467 69.758 13.06C70.278 13.2733 70.8513 13.38 71.478 13.38Z" fill="white"/>
<path d="M9.9 16L9.11042 16.6136L9.41068 17H9.9V16ZM4.18 8.64L3.40655 8.00614L2.90065 8.62345L3.39042 9.25364L4.18 8.64ZM9.72 1.88V0.879999H9.24661L8.94655 1.24614L9.72 1.88ZM13.6 1.88L14.3619 2.52771L15.7627 0.879999H13.6V1.88ZM7.36 9.22H6.36V11.9402L8.12189 9.86771L7.36 9.22ZM7.36 7.94L8.14125 7.31578L6.36 5.08645V7.94H7.36ZM13.8 16V17H15.879L14.5812 15.3758L13.8 16ZM1.36 16H0.36V17H1.36V16ZM1.36 1.88V0.879999H0.36V1.88H1.36ZM4.5 1.88H5.5V0.879999H4.5V1.88ZM4.5 16V17H5.5V16H4.5ZM10.6896 15.3864L4.96958 8.02636L3.39042 9.25364L9.11042 16.6136L10.6896 15.3864ZM4.95345 9.27386L10.4934 2.51386L8.94655 1.24614L3.40655 8.00614L4.95345 9.27386ZM9.72 2.88H13.6V0.879999H9.72V2.88ZM12.8381 1.23229L6.59811 8.57229L8.12189 9.86771L14.3619 2.52771L12.8381 1.23229ZM8.36 9.22V7.94H6.36V9.22H8.36ZM6.57875 8.56422L13.0188 16.6242L14.5812 15.3758L8.14125 7.31578L6.57875 8.56422ZM13.8 15H9.9V17H13.8V15ZM2.36 16V1.88H0.36V16H2.36ZM1.36 2.88H4.5V0.879999H1.36V2.88ZM3.5 1.88V16H5.5V1.88H3.5ZM4.5 15H1.36V17H4.5V15ZM17.51 10.18H16.51V11.18H17.51V10.18ZM17.51 7.86V6.86H16.51V7.86H17.51ZM21.93 7.38L21.2517 6.6452L21.2445 6.65183L21.2375 6.65861L21.93 7.38ZM21.95 4.82L21.2429 5.52711V5.52711L21.95 4.82ZM17.51 4.32H16.51V5.32H17.51V4.32ZM17.51 1.88V0.879999H16.51V1.88H17.51ZM23.33 2.42L22.8761 3.31104L22.8828 3.31447L22.8896 3.31779L23.33 2.42ZM24.99 3.88L25.8329 3.34196L24.99 3.88ZM24.99 8.22L25.8277 8.76629L25.8329 8.75803L24.99 8.22ZM23.31 9.66L23.7438 10.561L23.31 9.66ZM15.11 16H14.11V17H15.11V16ZM15.11 1.88V0.879999H14.11V1.88H15.11ZM18.25 1.88H19.25V0.879999H18.25V1.88ZM18.25 16V17H19.25V16H18.25ZM22.79 16L21.9799 16.5863L22.2793 17H22.79V16ZM18.39 9.92L18.1286 8.95477L16.731 9.33328L17.5799 10.5063L18.39 9.92ZM21.27 9.14L22.0647 8.53298L21.6569 7.99918L21.0086 8.17477L21.27 9.14ZM26.51 16V17H28.5322L27.3047 15.393L26.51 16ZM18.51 10.18V7.86H16.51V10.18H18.51ZM17.51 8.86H20.49V6.86H17.51V8.86ZM20.49 8.86C21.281 8.86 22.0448 8.65603 22.6225 8.10139L21.2375 6.65861C21.1486 6.74397 20.9524 6.86 20.49 6.86V8.86ZM22.6083 8.1148C23.1932 7.5749 23.45 6.85721 23.45 6.08H21.45C21.45 6.39612 21.3602 6.5451 21.2517 6.6452L22.6083 8.1148ZM23.45 6.08C23.45 5.33005 23.1929 4.64873 22.6571 4.11289L21.2429 5.52711C21.3737 5.65794 21.45 5.81661 21.45 6.08H23.45ZM22.6571 4.11289C22.0808 3.53657 21.3115 3.32 20.51 3.32V5.32C20.9618 5.32 21.1525 5.43676 21.2429 5.52711L22.6571 4.11289ZM20.51 3.32H17.51V5.32H20.51V3.32ZM18.51 4.32V1.88H16.51V4.32H18.51ZM17.51 2.88H20.87V0.879999H17.51V2.88ZM20.87 2.88C21.6734 2.88 22.3329 3.0343 22.8761 3.31104L23.7839 1.52896C22.9138 1.08569 21.9333 0.879999 20.87 0.879999V2.88ZM22.8896 3.31779C23.4417 3.58865 23.8516 3.95512 24.1471 4.41804L25.8329 3.34196C25.3284 2.55155 24.6316 1.94468 23.7704 1.52221L22.8896 3.31779ZM24.1471 4.41804C24.4349 4.869 24.59 5.39871 24.59 6.04H26.59C26.59 5.05463 26.3451 4.14433 25.8329 3.34196L24.1471 4.41804ZM24.59 6.04C24.59 6.69808 24.4332 7.23364 24.1471 7.68196L25.8329 8.75803C26.3468 7.95303 26.59 7.03526 26.59 6.04H24.59ZM24.1524 7.67373C23.8611 8.12037 23.4473 8.48404 22.8762 8.759L23.7438 10.561C24.6127 10.1426 25.3189 9.5463 25.8276 8.76627L24.1524 7.67373ZM22.8762 8.759C22.3178 9.02785 21.6253 9.18 20.77 9.18V11.18C21.8614 11.18 22.8622 10.9855 23.7438 10.561L22.8762 8.759ZM20.77 9.18H17.51V11.18H20.77V9.18ZM16.11 16V1.88H14.11V16H16.11ZM15.11 2.88H18.25V0.879999H15.11V2.88ZM17.25 1.88V16H19.25V1.88H17.25ZM18.25 15H15.11V17H18.25V15ZM23.6001 15.4137L19.2001 9.33373L17.5799 10.5063L21.9799 16.5863L23.6001 15.4137ZM18.6514 10.8852L21.5314 10.1052L21.0086 8.17477L18.1286 8.95477L18.6514 10.8852ZM20.4753 9.74702L25.7153 16.607L27.3047 15.393L22.0647 8.53298L20.4753 9.74702ZM26.51 15H22.79V17H26.51V15ZM31.5398 10.74L30.6877 11.2632L30.9804 11.74H31.5398V10.74ZM26.0998 1.88V0.879999H24.3124L25.2477 2.40324L26.0998 1.88ZM29.7398 1.88L30.6034 1.37583L30.314 0.879999H29.7398V1.88ZM33.9198 9.04V10.04H35.6616L34.7834 8.53583L33.9198 9.04ZM31.5798 9.04L30.7162 8.53583L29.8381 10.04H31.5798V9.04ZM35.7598 1.88V0.879999H35.1857L34.8962 1.37583L35.7598 1.88ZM39.3198 1.88L40.1703 2.40602L41.1142 0.879999H39.3198V1.88ZM33.8398 10.74V11.74H34.3972L34.6903 11.266L33.8398 10.74ZM31.1598 16H30.1598V17H31.1598V16ZM31.1598 9.3V8.3H30.1598V9.3H31.1598ZM34.2998 9.3H35.2998V8.3H34.2998V9.3ZM34.2998 16V17H35.2998V16H34.2998ZM32.392 10.2168L26.952 1.35676L25.2477 2.40324L30.6877 11.2632L32.392 10.2168ZM26.0998 2.88H29.7398V0.879999H26.0998V2.88ZM28.8762 2.38417L33.0562 9.54417L34.7834 8.53583L30.6034 1.37583L28.8762 2.38417ZM33.9198 8.04H31.5798V10.04H33.9198V8.04ZM32.4434 9.54417L36.6234 2.38417L34.8962 1.37583L30.7162 8.53583L32.4434 9.54417ZM35.7598 2.88H39.3198V0.879999H35.7598V2.88ZM38.4694 1.35398L32.9894 10.214L34.6903 11.266L40.1703 2.40602L38.4694 1.35398ZM33.8398 9.74H31.5398V11.74H33.8398V9.74ZM32.1598 16V9.3H30.1598V16H32.1598ZM31.1598 10.3H34.2998V8.3H31.1598V10.3ZM33.2998 9.3V16H35.2998V9.3H33.2998ZM34.2998 15H31.1598V17H34.2998V15ZM42.842 10.86H41.842V11.86H42.842V10.86ZM42.842 8.42V7.42H41.842V8.42H42.842ZM46.942 8.18L46.4948 7.28557L46.4948 7.28557L46.942 8.18ZM46.942 4.56L46.4948 5.45443V5.45443L46.942 4.56ZM42.842 4.32H41.842V5.32H42.842V4.32ZM42.842 1.88V0.879999H41.842V1.88H42.842ZM50.462 3.98L49.6075 4.49941L49.6135 4.50931L49.6198 4.51905L50.462 3.98ZM50.462 8.76L49.615 8.2285L49.6121 8.23306L50.462 8.76ZM48.762 10.32L49.2092 11.2144L49.2158 11.2111L49.2223 11.2078L48.762 10.32ZM40.442 16H39.442V17H40.442V16ZM40.442 1.88V0.879999H39.442V1.88H40.442ZM43.582 1.88H44.582V0.879999H43.582V1.88ZM43.582 16V17H44.582V16H43.582ZM43.842 10.86V8.42H41.842V10.86H43.842ZM42.842 9.42H45.882V7.42H42.842V9.42ZM45.882 9.42C46.4111 9.42 46.9194 9.30936 47.3892 9.07443L46.4948 7.28557C46.3247 7.37064 46.1262 7.42 45.882 7.42V9.42ZM47.3892 9.07443C47.878 8.83003 48.2722 8.46663 48.5562 7.99995L46.8478 6.96005C46.7586 7.1067 46.646 7.20996 46.4948 7.28557L47.3892 9.07443ZM48.5562 7.99995C48.8577 7.50471 48.982 6.94207 48.982 6.36H46.982C46.982 6.65793 46.9197 6.84196 46.8478 6.96005L48.5562 7.99995ZM48.982 6.36C48.982 5.78479 48.8549 5.23071 48.5562 4.74005L46.8478 5.77995C46.9225 5.90262 46.982 6.08187 46.982 6.36H48.982ZM48.5562 4.74005C48.2722 4.27337 47.878 3.90997 47.3892 3.66557L46.4948 5.45443C46.646 5.53003 46.7586 5.6333 46.8478 5.77995L48.5562 4.74005ZM47.3892 3.66557C46.9194 3.43064 46.4111 3.32 45.882 3.32V5.32C46.1262 5.32 46.3247 5.36936 46.4948 5.45443L47.3892 3.66557ZM45.882 3.32H42.842V5.32H45.882V3.32ZM43.842 4.32V1.88H41.842V4.32H43.842ZM42.842 2.88H46.342V0.879999H42.842V2.88ZM46.342 2.88C47.0974 2.88 47.7483 3.03118 48.3148 3.31443L49.2092 1.52557C48.3357 1.08882 47.3733 0.879999 46.342 0.879999V2.88ZM48.3148 3.31443C48.8685 3.59128 49.2931 3.98222 49.6075 4.49941L51.3166 3.46058C50.8043 2.61778 50.0955 1.96872 49.2092 1.52557L48.3148 3.31443ZM49.6198 4.51905C49.9276 5.00006 50.102 5.59941 50.102 6.36H52.102C52.102 5.28059 51.8498 4.29327 51.3043 3.44095L49.6198 4.51905ZM50.102 6.36C50.102 7.12007 49.9278 7.73 49.615 8.22851L51.3091 9.29149C51.8496 8.43 52.102 7.43993 52.102 6.36H50.102ZM49.6121 8.23306C49.2971 8.74119 48.8674 9.13893 48.3017 9.43225L49.2223 11.2078C50.0967 10.7544 50.8003 10.1121 51.3119 9.28694L49.6121 8.23306ZM48.3148 9.42557C47.7483 9.70882 47.0974 9.86 46.342 9.86V11.86C47.3733 11.86 48.3357 11.6512 49.2092 11.2144L48.3148 9.42557ZM46.342 9.86H42.842V11.86H46.342V9.86ZM41.442 16V1.88H39.442V16H41.442ZM40.442 2.88H43.582V0.879999H40.442V2.88ZM42.582 1.88V16H44.582V1.88H42.582ZM43.582 15H40.442V17H43.582V15ZM56.2067 16H55.2067V17H56.2067V16ZM56.2067 2.08V1.08H55.2067V2.08H56.2067ZM59.3467 2.08H60.3467V1.08H59.3467V2.08ZM59.3467 16V17H60.3467V16H59.3467ZM51.7867 4.62H50.7867V5.62H51.7867V4.62ZM51.7867 1.88V0.879999H50.7867V1.88H51.7867ZM63.7667 1.88H64.7667V0.879999H63.7667V1.88ZM63.7667 4.62V5.62H64.7667V4.62H63.7667ZM57.2067 16V2.08H55.2067V16H57.2067ZM56.2067 3.08H59.3467V1.08H56.2067V3.08ZM58.3467 2.08V16H60.3467V2.08H58.3467ZM59.3467 15H56.2067V17H59.3467V15ZM52.7867 4.62V1.88H50.7867V4.62H52.7867ZM51.7867 2.88H63.7667V0.879999H51.7867V2.88ZM62.7667 1.88V4.62H64.7667V1.88H62.7667ZM63.7667 3.62H51.7867V5.62H63.7667V3.62ZM68.558 15.68L68.1724 16.6027L68.1772 16.6047L68.558 15.68ZM66.198 14.12L66.898 13.4059L66.198 14.12ZM64.618 11.8L63.6953 12.1856L63.6974 12.1905L64.618 11.8ZM64.618 6.04L63.6974 5.64945L64.618 6.04ZM66.178 3.74L66.8779 4.45425L66.8851 4.44711L66.178 3.74ZM68.518 2.2L68.8918 3.12754L68.8987 3.12468L68.518 2.2ZM74.398 2.2L74.0124 3.12267L74.0206 3.12612L74.0289 3.12942L74.398 2.2ZM76.758 3.74L76.0509 4.44711L76.0579 4.45418L76.0651 4.4611L76.758 3.74ZM78.338 6.06L77.4153 6.4456L77.4174 6.45055L78.338 6.06ZM78.338 11.82L79.2586 12.2106L79.2606 12.2056L78.338 11.82ZM76.778 14.14L77.4779 14.8542L77.4851 14.8471L76.778 14.14ZM74.418 15.68L74.0372 14.7553L74.0324 14.7573L74.418 15.68ZM73.678 12.82L73.1741 11.9562L73.1662 11.9609L73.678 12.82ZM75.158 11.26L76.0452 11.7214L76.0489 11.7142L75.158 11.26ZM75.378 7.12L74.4388 7.46359L74.4416 7.47112L75.378 7.12ZM74.518 5.72L73.7869 6.40232L73.7927 6.40851L73.7986 6.41459L74.518 5.72ZM73.178 4.82L72.7899 5.74164L72.8044 5.74772L72.819 5.75335L73.178 4.82ZM69.258 5.06L69.7561 5.92712L69.7618 5.92378L69.258 5.06ZM67.798 6.6L68.6814 7.06873L68.6852 7.06135L67.798 6.6ZM67.578 10.74L66.6388 11.0836L67.578 10.74ZM68.418 12.16L67.6747 12.829L67.6864 12.842L67.6986 12.8546L68.418 12.16ZM69.758 13.06L69.3784 13.9852L69.758 13.06ZM71.518 15.24C70.5704 15.24 69.7144 15.0747 68.9387 14.7553L68.1772 16.6047C69.2149 17.032 70.3322 17.24 71.518 17.24V15.24ZM68.9436 14.7573C68.1653 14.4321 67.4859 13.9822 66.898 13.4059L65.4979 14.8341C66.2701 15.5911 67.1639 16.1812 68.1724 16.6027L68.9436 14.7573ZM66.898 13.4059C66.3125 12.8319 65.8606 12.1686 65.5386 11.4095L63.6974 12.1905C64.122 13.1914 64.7234 14.0748 65.4979 14.8341L66.898 13.4059ZM65.5406 11.4144C65.2214 10.6505 65.058 9.82239 65.058 8.92H63.058C63.058 10.0709 63.2679 11.1628 63.6953 12.1856L65.5406 11.4144ZM65.058 8.92C65.058 8.00229 65.2221 7.17651 65.5386 6.43055L63.6974 5.64945C63.2672 6.66349 63.058 7.75771 63.058 8.92H65.058ZM65.5386 6.43055C65.8617 5.66894 66.3077 5.01301 66.8779 4.45421L65.478 3.02579C64.7149 3.77365 64.1209 4.65106 63.6974 5.64945L65.5386 6.43055ZM66.8851 4.44711C67.4545 3.87767 68.1205 3.43833 68.8917 3.12752L68.1442 1.27248C67.1288 1.68166 66.2348 2.26899 65.4709 3.03289L66.8851 4.44711ZM68.8987 3.12468C69.6744 2.80529 70.5304 2.64 71.478 2.64V0.639999C70.2922 0.639999 69.1749 0.848038 68.1372 1.27532L68.8987 3.12468ZM71.478 2.64C72.4106 2.64 73.2516 2.80472 74.0124 3.12267L74.7836 1.27733C73.7577 0.848616 72.652 0.639999 71.478 0.639999V2.64ZM74.0289 3.12942C74.8134 3.44091 75.4839 3.88017 76.0509 4.44711L77.4651 3.03289C76.6987 2.2665 75.7958 1.67909 74.767 1.27058L74.0289 3.12942ZM76.0651 4.4611C76.6437 5.01696 77.0933 5.67519 77.4153 6.44559L79.2606 5.67441C78.8359 4.65814 78.2323 3.76971 77.4508 3.0189L76.0651 4.4611ZM77.4174 6.45055C77.7339 7.19651 77.898 8.02229 77.898 8.94H79.898C79.898 7.77771 79.6888 6.68349 79.2586 5.66945L77.4174 6.45055ZM77.898 8.94C77.898 9.84239 77.7346 10.6705 77.4153 11.4344L79.2606 12.2056C79.6881 11.1828 79.898 10.0909 79.898 8.94H77.898ZM77.4174 11.4295C77.0935 12.1929 76.6454 12.8583 76.0709 13.4329L77.4851 14.8471C78.2439 14.0883 78.8358 13.2071 79.2586 12.2106L77.4174 11.4295ZM76.078 13.4258C75.5078 13.9846 74.831 14.4285 74.0372 14.7553L74.7987 16.6047C75.8182 16.1849 76.7148 15.6021 77.4779 14.8542L76.078 13.4258ZM74.0324 14.7573C73.27 15.0759 72.4355 15.24 71.518 15.24V17.24C72.6804 17.24 73.7793 17.0307 74.8036 16.6027L74.0324 14.7573ZM71.478 14.38C72.4704 14.38 73.3861 14.1579 74.1898 13.6791L73.1662 11.9609C72.7165 12.2288 72.1656 12.38 71.478 12.38V14.38ZM74.1818 13.6838C74.9875 13.2138 75.6126 12.5532 76.0452 11.7214L74.2708 10.7986C74.01 11.3002 73.6484 11.6795 73.1741 11.9562L74.1818 13.6838ZM76.0489 11.7142C76.4775 10.8734 76.678 9.93366 76.678 8.92H74.678C74.678 9.66634 74.5318 10.2866 74.2671 10.8058L76.0489 11.7142ZM76.678 8.92C76.678 8.15347 76.5629 7.43184 76.3143 6.76888L74.4416 7.47112C74.593 7.87483 74.678 8.3532 74.678 8.92H76.678ZM76.3171 6.77642C76.0732 6.10971 75.7155 5.52057 75.2374 5.0254L73.7986 6.41459C74.0671 6.69277 74.2828 7.03696 74.4389 7.46358L76.3171 6.77642ZM75.249 5.03768C74.7704 4.52482 74.1957 4.14003 73.5369 3.88665L72.819 5.75335C73.2002 5.89997 73.5189 6.11518 73.7869 6.40232L75.249 5.03768ZM73.566 3.89836C72.9205 3.62657 72.2194 3.5 71.478 3.5V5.5C71.9899 5.5 72.4221 5.58676 72.7899 5.74164L73.566 3.89836ZM71.478 3.5C70.485 3.5 69.5666 3.72225 68.7541 4.19622L69.7618 5.92378C70.2293 5.65108 70.7909 5.5 71.478 5.5V3.5ZM68.7598 4.19289C67.9605 4.65206 67.342 5.3094 66.9108 6.13865L68.6852 7.06135C68.9473 6.55726 69.3021 6.18793 69.7561 5.9271L68.7598 4.19289ZM66.9146 6.13128C66.477 6.95607 66.278 7.89694 66.278 8.92H68.278C68.278 8.15639 68.4256 7.5506 68.6813 7.06872L66.9146 6.13128ZM66.278 8.92C66.278 9.68708 66.3932 10.4121 66.6388 11.0836L68.5171 10.3964C68.3628 9.97457 68.278 9.48625 68.278 8.92H66.278ZM66.6388 11.0836C66.8791 11.7404 67.2225 12.3265 67.6747 12.829L69.1613 11.491C68.8935 11.1935 68.6768 10.833 68.5171 10.3964L66.6388 11.0836ZM67.6986 12.8546C68.1724 13.3453 68.7364 13.7218 69.3784 13.9852L70.1375 12.1348C69.7396 11.9716 69.4102 11.748 69.1374 11.4654L67.6986 12.8546ZM69.3784 13.9852C70.032 14.2533 70.7361 14.38 71.478 14.38V12.38C70.9665 12.38 70.524 12.2934 70.1375 12.1348L69.3784 13.9852Z" fill="black" mask="url(#path-1-outside-1_101_56)"/>
</svg>
